<svg width="80" height="94" viewBox="0 0 80 94" fill="none" xmlns="http://www.w3.org/2000/svg">
<path d="M71.3334 35.25C69.8876 35.25 68.5317 35.644 67.367 36.3304C66.929 32.4216 63.6052 29.375 59.5834 29.375C57.6709 29.375 55.9133 30.0673 54.5479 31.2205C53.1767 28.9428 50.6809 27.4166 47.8334 27.4166C46.4087 27.4166 45.0699 27.799 43.9168 28.4684V7.83339C43.9166 3.51307 40.4035 0 36.0834 0C31.7632 0 28.25 3.51307 28.25 7.83339V60.2456C28.25 61.2324 27.5997 61.7391 27.3204 61.9113C27.0412 62.0835 26.2896 62.4373 25.4157 61.9974L12.8395 55.7093C11.6939 55.1356 10.4107 54.8334 9.12943 54.8334C4.55482 54.8334 0.833191 58.555 0.833191 63.1296V64.625C0.833191 65.1681 1.05883 65.6864 1.45466 66.0574L24.0578 87.1534C28.7892 91.5674 34.9589 94 41.4285 94H53.7082C67.7454 94 79.1666 82.579 79.1666 68.5416V43.0834C79.1666 38.7631 75.6535 35.25 71.3334 35.25Z" fill="white"/>
</svg>
