<svg width="84" height="91" viewBox="0 0 84 91" fill="none" xmlns="http://www.w3.org/2000/svg">
<path d="M81.9023 87.9895H79.3445V7.67348C79.3445 6.82568 78.6572 6.13882 77.8098 6.13882H49.162C48.3144 6.13882 47.6273 6.82568 47.6273 7.67348V14.3238H44.558V7.67348C44.558 6.82568 43.8708 6.13882 43.0234 6.13882H36.3729V1.53466C36.3729 0.686854 35.6856 0 34.8382 0C33.9907 0 33.3035 0.686854 33.3035 1.53466V6.13882H26.6532C25.8056 6.13882 25.1186 6.82568 25.1186 7.67348V14.3238H20.5144C19.6668 14.3238 18.9797 15.0107 18.9797 15.8585V28.6476H6.19059C5.34296 28.6476 4.65593 29.3345 4.65593 30.1823V87.9893H2.09774C1.25011 87.9893 0.56308 88.6762 0.56308 89.524C0.56308 90.3718 1.25029 91.0588 2.09774 91.0588H81.9023C82.7499 91.0588 83.437 90.372 83.437 89.5242C83.437 88.6764 82.7497 87.9895 81.9023 87.9895ZM28.1877 9.20815H41.4883V14.3238H28.1877V9.20815ZM23.072 87.9895H22.0489V85.4317C22.0489 84.5839 21.3617 83.897 20.5142 83.897C19.6668 83.897 18.9796 84.5839 18.9796 85.4317V87.9895H17.9564V82.8738H23.072V87.9895ZM33.3034 48.5987V51.2389V87.9895H26.1414V81.3392C26.1414 80.4914 25.4542 79.8045 24.6067 79.8045H16.4217C15.5741 79.8045 14.8871 80.4914 14.8871 81.3392V87.9895H7.72507V31.7171H33.3034V48.5987ZM34.838 28.6478H22.0489V17.3933H47.6272V47.0641H36.3729V41.9484H40.977C41.8247 41.9484 42.5117 41.2616 42.5117 40.4138C42.5117 39.5659 41.8245 38.8791 40.977 38.8791H36.3729V33.7634H40.977C41.8247 33.7634 42.5117 33.0766 42.5117 32.2288C42.5117 31.381 41.8245 30.6941 40.977 30.6941H36.3729V30.1826C36.3729 29.3346 35.6856 28.6478 34.838 28.6478ZM61.9511 87.9895H36.3729V51.2389V50.1336H61.9511V87.9895ZM76.275 87.9895H65.0205V48.5987V46.5524C65.0205 45.7046 64.3333 45.0177 63.4858 45.0177C62.6384 45.0177 61.9511 45.7046 61.9511 46.5524V47.0639H58.8818V46.5524C58.8818 45.7046 58.1946 45.0177 57.3472 45.0177C56.4997 45.0177 55.8125 45.7046 55.8125 46.5524V47.0639H50.6968V15.8586V9.20815H76.2751V87.9895H76.275Z" fill="black"/>
<path d="M43.0232 84.9204C43.8708 84.9204 44.5578 84.2331 44.5578 83.3857V54.7381C44.5578 53.8903 43.8706 53.2034 43.0232 53.2034C42.1757 53.2034 41.4885 53.8903 41.4885 54.7381V83.3859C41.4885 84.2333 42.1755 84.9204 43.0232 84.9204Z" fill="black"/>
<path d="M49.162 84.9204C50.0096 84.9204 50.6967 84.2331 50.6967 83.3857V54.7381C50.6967 53.8903 50.0095 53.2034 49.162 53.2034C48.3146 53.2034 47.6273 53.8903 47.6273 54.7381V83.3859C47.6272 84.2333 48.3144 84.9204 49.162 84.9204Z" fill="black"/>
<path d="M55.3006 84.9204C56.1483 84.9204 56.8353 84.2331 56.8353 83.3857V54.7381C56.8353 53.8903 56.1481 53.2034 55.3006 53.2034C54.4532 53.2034 53.766 53.8903 53.766 54.7381V83.3859C53.766 84.2333 54.4532 84.9204 55.3006 84.9204Z" fill="black"/>
<path d="M57.347 19.4395C58.1946 19.4395 58.8816 18.7526 58.8816 17.9048V15.8586C58.8816 15.0108 58.1944 14.324 57.347 14.324C56.4995 14.324 55.8123 15.0108 55.8123 15.8586V17.905C55.8123 18.7526 56.4993 19.4395 57.347 19.4395Z" fill="black"/>
<path d="M63.4858 19.4395C64.3334 19.4395 65.0205 18.7526 65.0205 17.9048V15.8586C65.0205 15.0108 64.3333 14.324 63.4858 14.324C62.6384 14.324 61.9511 15.0108 61.9511 15.8586V17.905C61.9511 18.7526 62.6382 19.4395 63.4858 19.4395Z" fill="black"/>
<path d="M69.6246 19.4395C70.4722 19.4395 71.1593 18.7526 71.1593 17.9048V15.8586C71.1593 15.0108 70.4721 14.324 69.6246 14.324C68.7772 14.324 68.09 15.0108 68.09 15.8586V17.905C68.09 18.7526 68.777 19.4395 69.6246 19.4395Z" fill="black"/>
<path d="M57.347 29.6708C58.1946 29.6708 58.8816 28.9839 58.8816 28.1361V26.0898C58.8816 25.242 58.1944 24.5551 57.347 24.5551C56.4995 24.5551 55.8123 25.242 55.8123 26.0898V28.1361C55.8123 28.9839 56.4993 29.6708 57.347 29.6708Z" fill="black"/>
<path d="M63.4858 29.6708C64.3334 29.6708 65.0205 28.9839 65.0205 28.1361V26.0898C65.0205 25.242 64.3333 24.5551 63.4858 24.5551C62.6384 24.5551 61.9511 25.242 61.9511 26.0898V28.1361C61.9511 28.9839 62.6382 29.6708 63.4858 29.6708Z" fill="black"/>
<path d="M69.6246 29.6708C70.4722 29.6708 71.1593 28.9839 71.1593 28.1361V26.0898C71.1593 25.242 70.4721 24.5551 69.6246 24.5551C68.7772 24.5551 68.09 25.242 68.09 26.0898V28.1361C68.09 28.9839 68.777 29.6708 69.6246 29.6708Z" fill="black"/>
<path d="M57.347 39.9022C58.1946 39.9022 58.8816 39.2154 58.8816 38.3676V36.3213C58.8816 35.4734 58.1944 34.7866 57.347 34.7866C56.4995 34.7866 55.8123 35.4734 55.8123 36.3213V38.3676C55.8123 39.2152 56.4993 39.9022 57.347 39.9022Z" fill="black"/>
<path d="M63.4858 39.9022C64.3334 39.9022 65.0205 39.2154 65.0205 38.3676V36.3213C65.0205 35.4734 64.3333 34.7866 63.4858 34.7866C62.6384 34.7866 61.9511 35.4734 61.9511 36.3213V38.3676C61.9511 39.2152 62.6382 39.9022 63.4858 39.9022Z" fill="black"/>
<path d="M69.6246 39.9022C70.4722 39.9022 71.1593 39.2154 71.1593 38.3676V36.3213C71.1593 35.4734 70.4721 34.7866 69.6246 34.7866C68.7772 34.7866 68.09 35.4734 68.09 36.3213V38.3676C68.09 39.2152 68.777 39.9022 69.6246 39.9022Z" fill="black"/>
<path d="M14.3754 43.9948C15.223 43.9948 15.9101 43.3079 15.9101 42.4601V40.4138C15.9101 39.5659 15.2228 38.8791 14.3754 38.8791C13.5279 38.8791 12.8407 39.5659 12.8407 40.4138V42.4601C12.8407 43.3077 13.5279 43.9948 14.3754 43.9948Z" fill="black"/>
<path d="M20.5142 43.9948C21.3618 43.9948 22.0489 43.3079 22.0489 42.4601V40.4138C22.0489 39.5659 21.3617 38.8791 20.5142 38.8791C19.6668 38.8791 18.9796 39.5659 18.9796 40.4138V42.4601C18.9796 43.3077 19.6666 43.9948 20.5142 43.9948Z" fill="black"/>
<path d="M26.653 43.9948C27.5007 43.9948 28.1877 43.3079 28.1877 42.4601V40.4138C28.1877 39.5659 27.5005 38.8791 26.653 38.8791C25.8056 38.8791 25.1184 39.5659 25.1184 40.4138V42.4601C25.1184 43.3077 25.8054 43.9948 26.653 43.9948Z" fill="black"/>
<path d="M14.3754 54.2261C15.223 54.2261 15.9101 53.5392 15.9101 52.6914V50.6451C15.9101 49.7973 15.2228 49.1104 14.3754 49.1104C13.5279 49.1104 12.8407 49.7973 12.8407 50.6451V52.6914C12.8407 53.539 13.5279 54.2261 14.3754 54.2261Z" fill="black"/>
<path d="M20.5142 54.2261C21.3618 54.2261 22.0489 53.5392 22.0489 52.6914V50.6451C22.0489 49.7973 21.3617 49.1104 20.5142 49.1104C19.6668 49.1104 18.9796 49.7973 18.9796 50.6451V52.6914C18.9796 53.539 19.6666 54.2261 20.5142 54.2261Z" fill="black"/>
<path d="M26.653 54.2261C27.5007 54.2261 28.1877 53.5392 28.1877 52.6914V50.6451C28.1877 49.7973 27.5005 49.1104 26.653 49.1104C25.8056 49.1104 25.1184 49.7973 25.1184 50.6451V52.6914C25.1184 53.539 25.8054 54.2261 26.653 54.2261Z" fill="black"/>
<path d="M14.3754 64.4574C15.223 64.4574 15.9101 63.7705 15.9101 62.9227V60.8764C15.9101 60.0286 15.2228 59.3417 14.3754 59.3417C13.5279 59.3417 12.8407 60.0286 12.8407 60.8764V62.9227C12.8407 63.7705 13.5279 64.4574 14.3754 64.4574Z" fill="black"/>
<path d="M20.5142 64.4574C21.3618 64.4574 22.0489 63.7705 22.0489 62.9227V60.8764C22.0489 60.0286 21.3617 59.3417 20.5142 59.3417C19.6668 59.3417 18.9796 60.0286 18.9796 60.8764V62.9227C18.9796 63.7705 19.6666 64.4574 20.5142 64.4574Z" fill="black"/>
<path d="M26.653 64.4574C27.5007 64.4574 28.1877 63.7705 28.1877 62.9227V60.8764C28.1877 60.0286 27.5005 59.3417 26.653 59.3417C25.8056 59.3417 25.1184 60.0286 25.1184 60.8764V62.9227C25.1184 63.7705 25.8054 64.4574 26.653 64.4574Z" fill="black"/>
<path d="M14.3754 74.6887C15.223 74.6887 15.9101 74.0018 15.9101 73.154V71.1077C15.9101 70.2599 15.2228 69.573 14.3754 69.573C13.5279 69.573 12.8407 70.2599 12.8407 71.1077V73.154C12.8407 74.0018 13.5279 74.6887 14.3754 74.6887Z" fill="black"/>
<path d="M20.5142 74.6887C21.3618 74.6887 22.0489 74.0018 22.0489 73.154V71.1077C22.0489 70.2599 21.3617 69.573 20.5142 69.573C19.6668 69.573 18.9796 70.2599 18.9796 71.1077V73.154C18.9796 74.0018 19.6666 74.6887 20.5142 74.6887Z" fill="black"/>
<path d="M26.653 74.6887C27.5007 74.6887 28.1877 74.0018 28.1877 73.154V71.1077C28.1877 70.2599 27.5005 69.573 26.653 69.573C25.8056 69.573 25.1184 70.2599 25.1184 71.1077V73.154C25.1184 74.0018 25.8054 74.6887 26.653 74.6887Z" fill="black"/>
<path d="M69.6246 50.1336C70.4722 50.1336 71.1593 49.4467 71.1593 48.5989V46.5526C71.1593 45.7048 70.4721 45.0179 69.6246 45.0179C68.7772 45.0179 68.09 45.7048 68.09 46.5526V48.5989C68.09 49.4465 68.777 50.1336 69.6246 50.1336Z" fill="black"/>
<path d="M69.6246 60.3649C70.4722 60.3649 71.1593 59.678 71.1593 58.8302V56.7839C71.1593 55.9361 70.4721 55.2492 69.6246 55.2492C68.7772 55.2492 68.09 55.9361 68.09 56.7839V58.8302C68.09 59.6779 68.777 60.3649 69.6246 60.3649Z" fill="black"/>
<path d="M69.6246 70.5962C70.4722 70.5962 71.1593 69.9093 71.1593 69.0615V67.0152C71.1593 66.1674 70.4721 65.4805 69.6246 65.4805C68.7772 65.4805 68.09 66.1674 68.09 67.0152V69.0615C68.09 69.9092 68.777 70.5962 69.6246 70.5962Z" fill="black"/>
<path d="M69.6246 80.8275C70.4722 80.8275 71.1593 80.1407 71.1593 79.2928V77.2465C71.1593 76.3987 70.4721 75.7119 69.6246 75.7119C68.7772 75.7119 68.09 76.3987 68.09 77.2465V79.2928C68.09 80.1405 68.777 80.8275 69.6246 80.8275Z" fill="black"/>
<path d="M42.5115 24.0436C42.5115 23.1958 41.8243 22.5089 40.9768 22.5089H28.6992C27.8516 22.5089 27.1645 23.1958 27.1645 24.0436C27.1645 24.8914 27.8517 25.5783 28.6992 25.5783H40.9768C41.8245 25.5783 42.5115 24.8914 42.5115 24.0436Z" fill="black"/>
</svg>
